PathFileType	4	(X/Y/Z)	SUBJ63_1_walk_RCNL2025.trc
DataRate	CameraRate	NumFrames	NumMarkers	Units	OrigDataRate	OrigDataStartFrame	OrigNumFrames
100	100	7	25	mm	100	179	238
Frame#	Time	R_Shoulder			L_Shoulder			C7			J_Notch			R_Elbow			L_Elbow			R_Wrist			L_Wrist			R_Asis			L_Asis			Sacral			Thoracic			Sternum			R_Thigh_Lateral			R_Knee_Lateral			R_Shank_Lateral			R_Ankle_Lateral			R_Heel			R_Toe			L_Thigh_Lateral			L_Knee_Lateral			L_Shank_Lateral			L_Ankle_Lateral			L_Heel			L_Toe		
		X1	Y1	Z1	X2	Y2	Z2	X3	Y3	Z3	X4	Y4	Z4	X5	Y5	Z5	X6	Y6	Z6	X7	Y7	Z7	X8	Y8	Z8	X9	Y9	Z9	X10	Y10	Z10	X11	Y11	Z11	X12	Y12	Z12	X13	Y13	Z13	X14	Y14	Z14	X15	Y15	Z15	X16	Y16	Z16	X17	Y17	Z17	X18	Y18	Z18	X19	Y19	Z19	X20	Y20	Z20	X21	Y21	Z21	X22	Y22	Z22	X23	Y23	Z23	X24	Y24	Z24	X25	Y25	Z25
179	1.78000000	1564.810181	1264.793823	-148.113235	1597.520508	1272.149780	-481.121735	1502.746338	1331.971558	-323.987427	1623.087524	1224.933105	-315.605072	1516.836548	986.470459	-43.381748	1576.683594	975.044006	-580.643494	1585.468201	774.614502	13.591388	1735.961487	813.134216	-569.607941	1637.447632	824.808105	-194.842010	1654.574341	813.768250	-446.841370	1422.434692	831.158752	-337.490082	1421.596924	1149.280640	-334.631439	1670.928711	1046.442017	-304.700317	1663.815430	488.153259	-139.122025	1692.765747	441.282074	-184.827393	1725.739502	262.894379	-140.962738	1814.621460	67.330673	-213.635193	1783.632935	53.736874	-273.991882	1926.765991	92.491333	-196.064194	1483.036743	455.440308	-507.276245	1473.991943	432.608002	-437.244629	1407.436646	249.791092	-462.497070	1342.026245	68.323097	-375.132172	1294.925781	74.435486	-320.660858	1454.547729	35.850307	-378.204376
180	1.79000000	1579.388794	1262.140625	-147.500885	1612.694702	1270.135620	-479.969299	1517.316040	1329.753052	-323.241486	1637.646362	1222.371704	-315.081726	1529.441162	984.251831	-42.592247	1595.647217	973.436340	-579.498901	1596.017395	772.084259	15.484369	1760.083252	817.207458	-565.416840	1652.901733	822.441528	-194.598724	1668.251953	811.961609	-447.384949	1436.802368	829.173279	-335.896820	1435.966187	1147.165161	-334.021332	1685.550293	1043.284302	-304.467285	1677.024536	484.166748	-140.632004	1707.813232	438.663818	-186.228455	1747.766846	261.646027	-142.061813	1842.866211	68.361343	-214.576736	1811.337524	53.052868	-274.381165	1954.719360	97.140602	-199.160049	1491.966553	455.446503	-508.082489	1483.146240	432.428650	-438.054230	1412.536377	250.925705	-463.254852	1342.979370	70.776405	-376.291718	1295.941528	78.127007	-322.050476	1454.944824	35.863945	-378.650574
181	1.80000000	1594.260620	1259.591309	-146.766556	1627.809448	1268.219116	-478.745117	1532.004883	1327.595459	-322.315033	1652.343872	1219.926636	-314.484131	1542.387939	982.110840	-41.703312	1614.228882	971.932312	-578.204102	1606.949890	769.634399	17.354689	1783.198120	821.098602	-561.388153	1668.489990	820.424133	-194.339127	1682.198120	810.352905	-447.726837	1451.399902	827.126587	-334.233002	1450.475220	1145.122803	-333.205994	1700.261841	1040.323730	-304.269806	1691.705322	481.180359	-141.779022	1723.607666	436.496948	-187.358444	1768.861694	260.697113	-142.979553	1867.295776	68.955864	-215.789291	1835.073364	52.357143	-274.978394	1978.950195	100.173439	-202.563965	1501.760620	455.391602	-509.032318	1493.054077	432.168121	-439.054596	1418.276855	252.119873	-464.265533	1344.095093	73.526405	-377.839233	1297.079590	82.248428	-323.934814	1455.343018	35.863422	-379.210114
182	1.81000000	1609.385010	1257.196533	-145.906143	1642.848877	1266.435913	-477.469116	1546.805176	1325.539551	-321.223969	1667.180908	1217.651611	-313.797607	1555.700317	980.076782	-40.719933	1632.392578	970.538147	-576.794312	1618.299500	767.293518	19.191051	1805.251648	824.682068	-557.580627	1684.235840	818.796448	-194.051849	1696.429565	808.913635	-447.848358	1466.263672	825.069458	-332.529327	1465.141724	1143.168945	-332.192200	1715.074951	1037.628174	-304.061005	1708.088989	479.332611	-142.527161	1740.178101	434.806091	-188.220627	1788.760986	259.831207	-143.794846	1887.856201	68.813988	-217.291550	1854.796021	51.437012	-275.814636	1999.464844	101.236977	-206.218582	1512.402344	455.260345	-510.094849	1503.724609	431.811096	-440.219940	1424.582886	253.414474	-465.495972	1345.423828	76.605408	-379.713776	1298.459106	86.839935	-326.208466	1455.747681	35.837528	-379.868286
183	1.82000000	1624.722412	1255.000977	-144.912491	1657.798462	1264.818970	-476.150787	1561.703979	1323.621216	-319.980804	1682.155884	1215.591431	-313.004944	1569.399536	978.172485	-39.644558	1650.109009	969.257568	-575.300720	1630.092102	765.082794	20.983646	1826.211792	827.845123	-554.053406	1700.164795	817.562012	-193.725143	1710.945557	807.597595	-447.756470	1481.420288	823.049316	-330.821045	1479.979858	1141.311035	-330.982727	1730.014526	1035.248169	-303.787109	1726.158813	478.578217	-142.889236	1757.461792	433.570129	-188.835571	1807.257690	258.867462	-144.574341	1904.675781	67.774475	-219.034561	1870.642090	50.175838	-276.849304	2016.422241	100.167656	-210.045166	1523.867554	455.050751	-511.258026	1515.185791	431.341919	-441.539185	1431.395874	254.864090	-466.919189	1347.034668	80.052895	-381.854187	1300.226318	91.944687	-328.761749	1456.180176	35.757519	-380.597321
184	1.83000000	1640.241699	1253.037109	-143.776291	1672.648071	1263.396118	-474.789795	1576.686035	1321.867554	-318.588531	1697.266113	1213.781738	-312.089966	1583.500244	976.414612	-38.479420	1667.354126	968.093384	-573.747131	1642.345825	763.015320	22.723013	1846.072876	830.501434	-550.863617	1716.299316	816.686707	-193.349152	1725.732788	806.353577	-447.472778	1496.881958	821.099121	-329.139740	1494.998901	1139.557373	-329.577454	1745.118286	1033.219727	-303.396393	1745.655884	478.718140	-142.918594	1775.321533	432.725952	-189.229843	1824.269897	257.703491	-145.353561	1918.071045	65.838699	-220.914337	1882.941284	48.573406	-277.987488	2030.131714	97.012627	-213.932404	1536.122070	454.780853	-512.528503	1527.484741	430.744141	-443.024719	1438.694702	256.532684	-468.526917	1349.021484	83.917549	-384.206268	1302.559814	97.620354	-331.494812	1456.666382	35.591068	-381.359619
185	1.84000000	1655.925049	1251.323730	-142.487625	1687.395386	1262.189331	-473.379669	1591.736084	1320.299194	-317.041077	1712.508179	1212.247925	-311.042206	1598.008667	974.814819	-37.229771	1684.107788	967.049561	-572.147461	1655.075378	761.098389	24.399299	1864.854431	832.597931	-548.064087	1732.653320	816.107300	-192.914429	1740.767456	805.138672	-447.020416	1512.640991	819.233093	-327.502655	1510.201416	1137.926025	-327.974945	1760.429688	1031.564941	-302.849731	1766.140381	479.458374	-142.686676	1793.550293	432.178436	-189.429489	1839.863647	256.332336	-146.136002	1928.519165	63.166195	-222.798340	1892.198242	46.753254	-279.107635	2041.031860	92.017120	-217.731079	1549.129883	454.482391	-513.926392	1540.689209	429.999664	-444.715698	1446.514404	258.484436	-470.335052	1351.511475	88.258301	-386.729034	1305.672852	103.946281	-334.331726	1457.230469	35.326935	-382.118256
